<svg xmlns="http://www.w3.org/2000/svg" viewBox="0 0 1600 900">
  <defs>
    <linearGradient id="sky" x1="0" y1="0" x2="1" y2="1">
      <stop offset="0" stop-color="#dfe9df"/>
      <stop offset=".48" stop-color="#eef1df"/>
      <stop offset="1" stop-color="#d8e2cf"/>
    </linearGradient>
    <linearGradient id="river" x1="0" y1="0" x2=".9" y2="1">
      <stop offset="0" stop-color="#b9cfc8"/>
      <stop offset=".58" stop-color="#dce9df"/>
      <stop offset="1" stop-color="#eef1df"/>
    </linearGradient>
    <linearGradient id="road" x1=".2" y1="0" x2="1" y2="1">
      <stop offset="0" stop-color="#d6d8c4"/>
      <stop offset="1" stop-color="#aebba5"/>
    </linearGradient>
    <filter id="soft" x="-20%" y="-20%" width="140%" height="140%">
      <feGaussianBlur stdDeviation="9"/>
    </filter>
  </defs>
  <rect width="1600" height="900" fill="url(#sky)"/>
  <path d="M0 130c170 45 300 25 450 72 160 50 310 36 490 28 270-12 430 18 660-40v710H0z" fill="#eff2df" opacity=".45"/>
  <path d="M0 230c160 68 340 46 500 94 220 66 435 34 650 42 190 7 300 45 450 14v520H0z" fill="#d9e4d6" opacity=".45"/>
  <path d="M0 270c190-20 330 48 500 95 250 68 510 20 750 52 170 22 250 60 350 38v445H0z" fill="url(#river)" opacity=".85"/>
  <path d="M0 660c200-42 330-72 510-104 260-46 520-54 750-20 150 22 250 56 340 44v320H0z" fill="#e8eedf" opacity=".42"/>
  <g opacity=".32" stroke="#6f8a83" fill="none" stroke-linecap="round">
    <path d="M58 548c120-18 230-18 330 0"/>
    <path d="M110 642c150-16 302-10 438 12"/>
    <path d="M70 748c180-26 360-20 520 10"/>
  </g>
  <path d="M670 520c150 70 270 120 450 180 140 46 300 80 480 112v88H590c44-126 74-248 80-380z" fill="url(#road)" opacity=".8"/>
  <g opacity=".45">
    <path d="M1020 330h300v250h-300z" fill="#c3c3aa"/>
    <path d="M990 330l180-118 186 118z" fill="#6f8174"/>
    <path d="M1062 390h74v86h-74z" fill="#e7ead8"/>
    <path d="M1185 388h72v104h-72z" fill="#586f63"/>
    <path d="M1280 394h40v112h-40z" fill="#738777"/>
    <path d="M1170 214v332" stroke="#607569" stroke-width="4"/>
  </g>
  <g opacity=".38">
    <path d="M1320 398h210v165h-210z" fill="#c9c8ad"/>
    <path d="M1298 398l128-86 132 86z" fill="#718173"/>
    <path d="M1360 446h54v68h-54z" fill="#e8ecd9"/>
  </g>
  <g opacity=".5">
    <path d="M760 410h190v142H760z" fill="#d3cfb0"/>
    <path d="M738 410l112-76 124 76z" fill="#7a8a78"/>
    <path d="M815 448h58v70h-58z" fill="#eef1df"/>
  </g>
  <g stroke="#55735d" stroke-linecap="round" opacity=".72">
    <g transform="translate(850 602) scale(.78)">
      <path d="M0 0c-10 26-8 58-3 86" stroke-width="6"/>
      <path d="M-4 16c-34-8-70-25-96-48" stroke-width="8"/>
      <path d="M4 18c36-5 76-18 110-38" stroke-width="8"/>
      <path d="M-8 42c-28 8-54 22-76 42" stroke-width="7"/>
      <path d="M5 48c32 10 62 26 88 48" stroke-width="7"/>
    </g>
    <g transform="translate(1050 664) scale(.66)">
      <path d="M0 0c-8 24-7 52-1 74" stroke-width="6"/>
      <path d="M-2 18c-26-7-56-22-82-42" stroke-width="7"/>
      <path d="M5 20c28-3 60-14 88-32" stroke-width="7"/>
    </g>
    <g transform="translate(1250 712) scale(.6)">
      <path d="M0 0c-8 22-6 48 0 68" stroke-width="6"/>
      <path d="M-4 18c-28-8-54-22-76-40" stroke-width="7"/>
      <path d="M5 20c30-6 58-16 84-34" stroke-width="7"/>
    </g>
  </g>
  <g opacity=".46" stroke="#344d47" stroke-width="5" stroke-linecap="round" fill="none">
    <path d="M900 666c-8 38-4 76 6 112"/>
    <path d="M902 685c-40-16-76-35-110-64"/>
    <path d="M907 690c36-12 72-30 108-58"/>
    <path d="M1034 720c-6 28-2 58 8 84"/>
    <path d="M1036 736c-30-12-58-26-84-48"/>
    <path d="M1042 738c30-10 58-24 86-46"/>
  </g>
  <g filter="url(#soft)" opacity=".38">
    <ellipse cx="380" cy="340" rx="360" ry="86" fill="#eff5ec"/>
    <ellipse cx="1050" cy="330" rx="430" ry="90" fill="#eff5ec"/>
    <ellipse cx="760" cy="556" rx="560" ry="96" fill="#eff5ec"/>
  </g>
</svg>
